<mxfile host="app.diagrams.net" modified="2022-03-01T04:13:46.443Z" agent="5.0 (Windows NT 10.0; Win64; x64) AppleWebKit/537.36 (KHTML, like Gecko) Chrome/98.0.4758.102 Safari/537.36" etag="pLjgK_CvDP8sbzAJvecJ" version="16.6.4" type="github">
  <diagram id="TNV7HJVb4iGKGPpMpi9p" name="Page-1">
    <mxGraphModel dx="927" dy="614" grid="1" gridSize="10" guides="1" tooltips="1" connect="1" arrows="1" fold="1" page="1" pageScale="1" pageWidth="850" pageHeight="1100" math="0" shadow="0">
      <root>
        <mxCell id="0" />
        <mxCell id="1" parent="0" />
        <mxCell id="roPlpWiqxRkQ07TjjC4V-2" value="" style="rounded=0;whiteSpace=wrap;html=1;" vertex="1" parent="1">
          <mxGeometry y="210" width="120" height="60" as="geometry" />
        </mxCell>
        <mxCell id="roPlpWiqxRkQ07TjjC4V-3" value="" style="rounded=0;whiteSpace=wrap;html=1;" vertex="1" parent="1">
          <mxGeometry x="160" y="210" width="120" height="60" as="geometry" />
        </mxCell>
      </root>
    </mxGraphModel>
  </diagram>
</mxfile>
